HIERARCHY
ROOT Hips
{
 OFFSET 0.000000 0.000000 0.000000
 CHANNELS 6 Xposition Yposition Zposition Yrotation Xrotation Zrotation
 JOINT Chest
 {
  OFFSET 0.000000 10.383400 0.001500
  CHANNELS 3 Yrotation Xrotation Zrotation
  JOINT Chest2
  {
   OFFSET 0.000000 10.418200 -0.003100
   CHANNELS 3 Yrotation Xrotation Zrotation
   JOINT Chest3
   {
    OFFSET 0.000000 10.375100 0.000000
    CHANNELS 3 Yrotation Xrotation Zrotation
    JOINT Chest4
    {
     OFFSET 0.000000 10.364600 0.000000
     CHANNELS 3 Yrotation Xrotation Zrotation
     JOINT Neck
     {
      OFFSET 0.000000 15.642200 0.000000
      CHANNELS 3 Yrotation Xrotation Zrotation
      JOINT Head
      {
       OFFSET 0.000000 9.697300 -0.006500
       CHANNELS 3 Yrotation Xrotation Zrotation
       End Site
       {
        OFFSET 0.000000 18.492200 -0.003400
       }
      }
     }
     JOINT RightCollar
     {
      OFFSET -3.166800 10.349300 0.000000
      CHANNELS 3 Yrotation Xrotation Zrotation
      JOINT RightShoulder
      {
       OFFSET -14.729700 0.000000 0.000000
       CHANNELS 3 Yrotation Xrotation Zrotation
       JOINT RightElbow
       {
        OFFSET 0.000000 -32.224300 0.000000
        CHANNELS 3 Yrotation Xrotation Zrotation
        JOINT RightWrist
        {
         OFFSET 0.000000 -26.084100 0.000000
         CHANNELS 3 Yrotation Xrotation Zrotation
         End Site
         {
          OFFSET 0.000000 -19.319400 0.000000
         }
        }
       }
      }
     }
     JOINT LeftCollar
     {
      OFFSET 3.166800 10.349300 0.000000
      CHANNELS 3 Yrotation Xrotation Zrotation
      JOINT LeftShoulder
      {
       OFFSET 14.729700 0.000000 0.000000
       CHANNELS 3 Yrotation Xrotation Zrotation
       JOINT LeftElbow
       {
        OFFSET 0.000000 -32.224300 0.000000
        CHANNELS 3 Yrotation Xrotation Zrotation
        JOINT LeftWrist
        {
         OFFSET 0.000000 -26.084100 0.000000
         CHANNELS 3 Yrotation Xrotation Zrotation
         End Site
         {
          OFFSET 0.000000 -19.319400 0.000000
         }
        }
       }
      }
     }
    }
   }
  }
 }
 JOINT RightHip
 {
  OFFSET -8.428900 -0.007500 -0.000800
  CHANNELS 3 Yrotation Xrotation Zrotation
  JOINT RightKnee
  {
   OFFSET 0.000000 -43.834600 0.000700
   CHANNELS 3 Yrotation Xrotation Zrotation
   JOINT RightAnkle
   {
    OFFSET 0.000000 -42.757000 0.001200
    CHANNELS 3 Yrotation Xrotation Zrotation
    JOINT RightToe
    {
     OFFSET 0.000000 -6.946900 15.649300
     CHANNELS 3 Yrotation Xrotation Zrotation
     End Site
     {
      OFFSET 0.000000 -1.580800 6.825800
     }
    }
   }
  }
 }
 JOINT LeftHip
 {
  OFFSET 8.428900 -0.007500 -0.000800
  CHANNELS 3 Yrotation Xrotation Zrotation
  JOINT LeftKnee
  {
   OFFSET 0.000000 -43.834600 0.000700
   CHANNELS 3 Yrotation Xrotation Zrotation
   JOINT LeftAnkle
   {
    OFFSET 0.000000 -42.757000 0.001200
    CHANNELS 3 Yrotation Xrotation Zrotation
    JOINT LeftToe
    {
     OFFSET 0.000000 -6.946900 15.649300
     CHANNELS 3 Yrotation Xrotation Zrotation
     End Site
     {
      OFFSET 0.000000 -1.580800 6.825800
     }
    }
   }
  }
 }
}
MOTION
Frames: 11
Frame Time: 0.008333
21.177808 126.771382 -40.206730 -15.889590 -24.945657 -1.403372 0.037579 20.705402 1.930371 -0.034489 2.672144 0.245455 -0.046135 4.376561 0.401395 -0.009821 17.725964 1.645132 2.558327 9.624485 -2.637692 6.230926 -17.728630 -6.324791 0.465633 -3.997468 -2.264831 4.994444 -15.000764 -2.613754 31.007786 -52.466739 -15.242106 10.270258 3.321876 -20.708119 -5.900419 -5.542629 -3.438263 -0.493095 -6.470980 2.275480 -35.494622 -63.176736 25.462250 -25.899720 -2.254833 16.415196 -3.369273 -44.439567 3.748555 -26.892679 76.503985 -28.625371 2.663913 -6.226714 4.963129 0.001849 -0.007647 0.000821 -4.422664 -37.386495 -7.822153 -6.117306 71.034666 -3.542521 -13.425215 -6.885057 -2.523946 -0.001780 0.000554 -0.000790
21.178819 126.771586 -40.207672 -15.887949 -24.947057 -1.401537 0.042691 20.713539 1.930869 -0.028803 2.684288 0.244073 -0.054205 4.363810 0.403314 -0.007612 17.729043 1.645979 2.568107 9.614295 -2.638719 6.235497 -17.763128 -6.326981 0.468397 -3.996462 -2.265295 5.036903 -15.022692 -2.612821 30.968676 -52.444451 -15.252373 10.232023 3.347736 -20.655039 -5.911369 -5.499416 -3.421203 -0.578913 -6.526748 2.226120 -34.975950 -63.229013 25.083032 -25.901543 -2.230333 16.256063 -3.353830 -44.438520 3.741930 -26.870520 76.514109 -28.606639 2.645163 -6.239720 4.960723 -0.000015 -0.007695 -0.000006 -4.452546 -37.391562 -7.823796 -6.093737 71.037913 -3.515756 -13.400878 -6.888496 -2.534369 -0.001660 0.000582 -0.000737
21.178116 126.771914 -40.209320 -15.886764 -24.949614 -1.410298 0.049788 20.723875 1.939339 -0.026071 2.683020 0.244811 -0.047125 4.382624 0.402263 -0.011300 17.726158 1.649069 2.584828 9.595134 -2.640539 6.228249 -17.798472 -6.322797 0.466986 -3.996399 -2.264891 5.096710 -15.057444 -2.613757 30.789320 -52.441964 -15.146502 10.211006 3.394462 -20.584697 -5.926881 -5.453743 -3.392810 -0.661186 -6.606326 2.169077 -34.216454 -63.297726 24.489721 -25.889622 -2.198634 16.043323 -3.311079 -44.436484 3.744175 -26.941496 76.509359 -28.660291 2.617990 -6.247861 4.957885 0.008939 -0.008268 0.003967 -4.474364 -37.393169 -7.822719 -6.097182 71.041664 -3.490888 -13.375961 -6.896963 -2.563038 0.001818 0.001566 0.000807
21.178774 126.772695 -40.209955 -15.888087 -24.958398 -1.409930 0.056779 20.736431 1.940305 -0.020173 2.681028 0.243052 -0.045818 4.385843 0.402392 -0.009238 17.741587 1.653577 2.588226 9.572262 -2.642054 6.229045 -17.823511 -6.316700 0.457627 -3.908406 -2.301020 5.173912 -15.179400 -2.587249 30.421984 -52.465227 -14.905444 10.195851 3.460055 -20.463274 -5.950121 -5.387085 -3.362104 -0.747514 -6.709124 2.105595 -33.164422 -63.392065 23.642167 -25.833939 -2.157226 15.737390 -3.283296 -44.427973 3.740604 -26.973584 76.508578 -28.693569 2.603432 -6.255571 4.966029 0.009761 -0.008324 0.004333 -4.486591 -37.388230 -7.817406 -6.085399 71.043435 -3.478440 -13.371299 -6.898478 -2.568155 -0.000034 0.001823 -0.000015
21.180017 126.773612 -40.210481 -15.878617 -24.969435 -1.411373 0.059199 20.746577 1.939583 -0.017883 2.678504 0.239057 -0.044333 4.387311 0.402167 -0.003920 17.754152 1.660283 2.580765 9.558688 -2.638676 6.231617 -17.839644 -6.310840 0.444385 -3.811207 -2.327250 5.279475 -15.288062 -2.569663 29.768093 -52.526724 -14.450967 10.191506 3.538499 -20.266636 -5.984075 -5.288059 -3.329149 -0.844545 -6.829874 2.030518 -31.781879 -63.526855 22.517024 -25.687675 -2.117116 15.308845 -3.275302 -44.416469 3.736046 -26.960184 76.509165 -28.693301 2.590646 -6.257118 4.984673 0.005751 -0.009176 0.002553 -4.555921 -37.389640 -7.800084 -6.002293 71.048277 -3.411950 -13.381935 -6.899175 -2.572240 -0.002976 0.000292 -0.001321
21.181925 126.773702 -40.212949 -15.874437 -24.971137 -1.410187 0.068998 20.745198 1.934887 -0.018120 2.673092 0.238535 -0.042815 4.388138 0.401918 0.002567 17.762468 1.658022 2.573679 9.552990 -2.625674 6.226440 -17.842538 -6.303759 0.438099 -3.703849 -2.334892 5.399201 -15.372879 -2.560347 28.710122 -52.653927 -13.684726 10.219826 3.635671 -19.978888 -6.030627 -5.155572 -3.288540 -0.952953 -6.959990 1.941204 -30.021091 -63.714940 21.082937 -25.406364 -2.104779 14.753124 -3.262598 -44.414123 3.733631 -26.899199 76.511234 -28.657786 2.575418 -6.259829 5.006053 -0.003196 -0.009642 -0.001419 -4.600212 -37.395762 -7.796650 -5.934612 71.047885 -3.333402 -13.375977 -6.903213 -2.608845 0.000432 0.000261 0.000192
21.182774 126.774531 -40.214363 -15.868113 -24.983904 -1.413696 0.076000 20.746896 1.931647 -0.022818 2.678941 0.243603 -0.042107 4.388616 0.401838 0.022618 17.755017 1.648214 2.588610 9.536521 -2.610739 6.206478 -17.842445 -6.276151 0.429345 -3.572460 -2.333445 5.520603 -15.441836 -2.551125 27.209105 -52.849604 -12.576659 10.253984 3.730143 -19.603659 -6.098560 -4.989044 -3.253139 -1.061741 -7.088401 1.845419 -27.837912 -63.959800 19.297358 -24.953849 -2.151578 14.097812 -3.239418 -44.398932 3.727688 -26.890543 76.509879 -28.657094 2.555834 -6.267770 5.012165 -0.008675 -0.009845 -0.003850 -4.661260 -37.392119 -7.764399 -5.896837 71.047509 -3.315030 -13.376679 -6.903715 -2.627401 -0.000280 0.000249 -0.000124
21.182637 126.776733 -40.213226 -15.849296 -25.016102 -1.423155 0.074499 20.768856 1.933577 -0.029200 2.684443 0.245859 -0.041582 4.389348 0.401729 0.024651 17.756274 1.647623 2.602212 9.529314 -2.606949 6.248874 -17.899657 -6.258073 0.441876 -3.447600 -2.343150 5.628093 -15.488038 -2.532254 25.255211 -53.099894 -11.107762 10.254745 3.758580 -19.179539 -6.158825 -4.815959 -3.248936 -1.148065 -7.205318 1.753123 -25.244512 -64.251775 17.155946 -24.293270 -2.279211 13.379489 -3.178741 -44.360880 3.697325 -26.960426 76.499574 -28.701692 2.534983 -6.274277 5.019840 -0.004167 -0.006948 -0.001850 -4.747150 -37.372652 -7.707289 -5.890453 71.046046 -3.345737 -13.428793 -6.892999 -2.621608 -0.005746 0.001061 -0.002551
21.183513 126.776991 -40.216256 -15.843597 -25.025500 -1.426838 0.082998 20.770019 1.934080 -0.019887 2.689540 0.243025 -0.049069 4.389263 0.405096 0.039389 17.782247 1.645232 2.603065 9.502059 -2.594307 6.258061 -17.926062 -6.254763 0.438400 -3.350608 -2.339907 5.703043 -15.514275 -2.494087 22.811384 -53.388651 -9.221830 10.198816 3.649668 -18.762821 -6.240783 -4.656592 -3.245847 -1.178333 -7.305198 1.663833 -22.294708 -64.561066 14.681940 -23.379281 -2.497533 12.624977 -3.130988 -44.351226 3.676400 -26.974063 76.496570 -28.705913 2.518626 -6.274102 5.030869 -0.003732 -0.004900 -0.001656 -4.838370 -37.376360 -7.651423 -5.870298 71.043544 -3.360880 -13.419171 -6.890746 -2.643208 -0.005356 0.001597 -0.002377
21.184154 126.776993 -40.220032 -15.838585 -25.033757 -1.431286 0.094651 20.781812 1.936554 -0.027771 2.696251 0.246476 -0.044950 4.384401 0.404349 0.038984 17.811537 1.646546 2.620708 9.473463 -2.596783 6.243586 -17.943175 -6.248141 0.452087 -3.258424 -2.350236 5.725057 -15.539956 -2.430860 19.837428 -53.688299 -6.867999 10.054726 3.363374 -18.375467 -6.300361 -4.499854 -3.262121 -1.118744 -7.389628 1.571251 -19.014479 -64.838911 11.850940 -22.148627 -2.802815 11.863325 -3.067397 -44.344712 3.642475 -26.999310 76.493325 -28.705855 2.505324 -6.271734 5.038071 -0.002082 -0.004062 -0.000924 -4.940745 -37.382346 -7.585579 -5.863135 71.040806 -3.398483 -13.387810 -6.889321 -2.664818 -0.004134 0.001774 -0.001835
21.183151 126.778668 -40.220729 -15.837010 -25.065472 -1.437253 0.098478 20.820151 1.942441 -0.026202 2.708148 0.246051 -0.041840 4.386653 0.403380 0.041121 17.842413 1.646303 2.644382 9.437525 -2.603191 6.274017 -18.003333 -6.259848 0.467504 -3.163339 -2.360546 5.678467 -15.587420 -2.337887 16.339389 -53.972146 -4.056895 9.791104 2.916157 -17.977202 -6.354611 -4.351185 -3.282684 -0.949508 -7.462800 1.468619 -15.322363 -65.035827 8.540044 -20.561274 -3.173322 11.121204 -2.989873 -44.315561 3.597650 -27.060345 76.490386 -28.720185 2.496724 -6.269232 5.036218 0.004792 -0.005856 0.002127 -5.019704 -37.359297 -7.544695 -5.897182 71.038820 -3.429916 -13.338701 -6.896684 -2.710335 0.002085 0.001489 0.000925
